{"title":"Wedding Pullav (2015) DVDscr x264 {VikkyMaxx}","uid":12630921,"size":747892461,"categoryP":"video","categoryS":"movies","magnet":"?xt=urn:btih:af5303184260810f0cd808de85a4280cf9d1df55&amp;dn=Wedding+Pullav+%282015%29+DVDscr+x264+%7BVikkyMaxx%7D&amp;tr=udp%3A%2F%2Ftracker.leechers-paradise.org%3A6969&amp;tr=udp%3A%2F%2Fzer0day.ch%3A1337&amp;tr=udp%3A%2F%2Fopen.demonii.com%3A1337&amp;tr=udp%3A%2F%2Ftracker.coppersurfer.tk%3A6969&amp;tr=udp%3A%2F%2Fexodus.desync.com%3A6969","seeders":0,"leechers":1,"uploader":"shailendramaxx","files":22,"time":1445838238,"description":"VikkyMaxx Presents :-\r\n\r\nWedding Pullav (2015) DVDscr x264 {VikkyMaxx}\r\n\r\nIMDB :- http://www.imdb.com/title/tt4651394\r\n\r\nRatings :- 5.2/10\r\n\r\nPlot :- Wedding Pullav shows the story of two best friends Diganth and Anushka Ranjan who are in love but they themselves are unaware of it. When Anushka is invited to attend the wedding of Diganth this love confusion further increases. On one hand Diganth is jealous with Anushkas boyfriend while on other side Anushka do not like Diganth to marry another girl whom she initially praises. The story then moves to a stage where they know their feelings but not sure what to do next.\r\n\r\nCast :- Diganth, Anushka Ranjan, Kitu Gidwani, Karan V. Grover\r\n\r\n\r\nGeneral:-\r\n \r\nSource : Team ICTV (A Big Thanks)\r\nComplete name : Wedding Pullav (2015) DVDscr x264 {VikkyMaxx}\r\nFormat : Matroska \r\nFormat version : Version 2 \r\nFile size : 698 MiB \r\nDuration : 1h 53mn \r\nOverall bit rate : 862 Kbps \r\nEncoded date : UTC 2015-10-25 20:08:40 \r\nWriting application : mkvmerge v7.7.0 ('Six Voices') 32bit built on Feb 28 2015 23:23:00 \r\nWriting library : libebml v1.3.1 + libmatroska v1.4.2 \r\nDURATION : 01:53:13.760000000 \r\nNUMBER_OF_FRAMES : 212305 \r\nNUMBER_OF_BYTES : 326100480 \r\n_STATISTICS_WRITING_APP : mkvmerge v7.7.0 ('Six Voices') 32bit built on Feb 28 2015 23:23:00 \r\n_STATISTICS_WRITING_DATE_UTC : 2015-10-25 20:08:40 \r\n_STATISTICS_TAGS : BPS DURATION NUMBER_OF_FRAMES NUMBER_OF_BYTES \r\n\r\nVideo:-\r\n\r\nID : 1 \r\nFormat : AVC \r\nFormat/Info : Advanced Video Codec \r\nFormat profile :    \r\nFormat settings, CABAC : Yes \r\nFormat settings, ReFrames : 4 frames \r\nCodec ID : V_MPEG4/ISO/AVC \r\nDuration : 1h 53mn \r\nBit rate : 476 Kbps \r\nWidth : 720 pixels \r\nHeight : 304 pixels \r\nDisplay aspect ratio : 2.35:1 \r\nFrame rate mode : Constant \r\nFrame rate : 25.000 fps \r\nColor space : YUV \r\nChroma subsampling : 4:2:0 \r\nBit depth : 8 bits \r\nScan type : Progressive \r\nBits/(Pixel*Frame) : 0.087 \r\nStream size : 373 MiB (53%) \r\nWriting library : x264 core 146 r2538 121396c \r\nEncoding settings : cabac=1 / ref=3 / deblock=1:0:0 \r\nDefault : Yes \r\nForced : No \r\n\r\nAudio:-\r\n \r\nID : 2 \r\nFormat : AC-3 \r\nFormat/Info : Audio Coding 3 \r\nMode extension : CM (complete main) \r\nFormat settings, Endianness : Big \r\nCodec ID : A_AC3 \r\nDuration : 1h 53mn \r\nBit rate mode : Constant \r\nBit rate : 384 Kbps \r\nChannel(s) : 2 channels \r\nChannel positions : Front: L R \r\nSampling rate : 48.0 KHz \r\nCompression mode : Lossy \r\nStream size : 311 MiB (45%) \r\nDefault : Yes \r\nForced : No \r\n\r\nSCREENS :-\r\n\r\n\r\n \nhttp://i.imgur.com/Jq0DD9S.png\r\n \nhttp://i.imgur.com/1kbwFrv.png]\r\n \nhttp://i.imgur.com/Gq0UFH1.png\r\n \nhttp://i.imgur.com/MjiwvbO.png\r\n \nhttp://i.imgur.com/IdSvpqP.png\r\n \nhttp://i.imgur.com/H8Upf9G.png\r\n \nhttp://i.imgur.com/ELDLOUG.png\r\n \nhttp://i.imgur.com/V4M2vEb.png\r\n \nhttp://i.imgur.com/LEm7mHj.png\r\n \nhttp://i.imgur.com/D47vrl6.png\r\n \nhttp://i.imgur.com/xhJ3S1Z.png\r\n \nhttp://i.imgur.com/bV7rfEn.png\r\n\r\n               ********** PLEASE SEED AS LONG AS YOU CAN AFTER DOWNLOAD **********\r\n                       \r\n                           ***** THANK YOU REGARDS - VikkyMaxx *****","torrent":{"xt":"urn:btih:af5303184260810f0cd808de85a4280cf9d1df55","amp;dn":"Wedding+Pullav+%282015%29+DVDscr+x264+%7BVikkyMaxx%7D","amp;tr":["udp%3A%2F%2Ftracker.leechers-paradise.org%3A6969","udp%3A%2F%2Fzer0day.ch%3A1337","udp%3A%2F%2Fopen.demonii.com%3A1337","udp%3A%2F%2Ftracker.coppersurfer.tk%3A6969","udp%3A%2F%2Fexodus.desync.com%3A6969"],"infoHash":"af5303184260810f0cd808de85a4280cf9d1df55","infoHashBuffer":{"type":"Buffer","data":[175,83,3,24,66,96,129,15,12,216,8,222,133,164,40,12,249,209,223,85]},"announce":[],"urlList":[]}}